D:\school\WTK\thesis\model\3dpredictsim\Results\Batchsim_tmt_linear\Pog_s1_tmt_bCst_d02_k500_ig24_pas_GRF.mot
nRows=27
nColumns=19

name D:\school\WTK\thesis\model\3dpredictsim\Results\Batchsim_tmt_linear\Pog_s1_tmt_bCst_d02_k500_ig24_pas_GRF.mot
datacolumns 19
datarows 27
range 0.0000000000 0.2882952260
endheader
time 	ground_force_vx	ground_force_vy	ground_force_vz	ground_force_px	ground_force_py	ground_force_pz	1_ground_force_vx	1_ground_force_vy	1_ground_force_vz	1_ground_force_px	1_ground_force_py	1_ground_force_pz	ground_torque_x	ground_torque_y	ground_torque_z	1_ground_torque_x	1_ground_torque_y	1_ground_torque_z
        0.0000000000	      -74.4199029671	       62.5400939107	       30.9038020127	        0.1694145887	        0.0000000000	        0.0375243608	       98.7802830302	      489.9833211770	       -3.8218513808	       -0.3172135772	        0.0000000000	       -0.0329712176	        0.0000000000	        0.0000000000	        0.0000000000	        0.0000000000	        0.0000000000	        0.0000000000	
        0.0110882779	     -117.0714023891	      138.4467774546	       77.7380612445	        0.1766627974	        0.0000000000	        0.0350573224	       80.3024106613	      407.3560869243	       -8.8094374405	       -0.3133797777	        0.0000000000	       -0.0319046583	        0.0000000000	        0.0000000000	        0.0000000000	        0.0000000000	        0.0000000000	        0.0000000000	
        0.0221765558	      -50.0279829995	      281.3525617267	       35.4241726939	        0.1824037152	        0.0000000000	        0.0324547912	       60.4562397454	      317.3868359725	       -9.7014273584	       -0.3074087645	        0.0000000000	       -0.0297043565	        0.0000000000	        0.0000000000	        0.0000000000	        0.0000000000	        0.0000000000	        0.0000000000	
        0.0332648338	      -48.6030394382	      449.9907611963	        5.3583701603	        0.1864750126	        0.0000000000	        0.0325145100	       32.3151592600	      212.2734062740	       -5.9935684071	       -0.2957529768	        0.0000000000	       -0.0244257699	        0.0000000000	        0.0000000000	        0.0000000000	        0.0000000000	        0.0000000000	        0.0000000000	
        0.0443531117	      -80.0634444126	      659.7247277737	       -6.8776539822	        0.1951376962	        0.0000000000	        0.0350432837	       11.7585252800	      140.7104656177	       -8.8019708626	       -0.2799794305	        0.0000000000	       -0.0162138610	        0.0000000000	        0.0000000000	        0.0000000000	        0.0000000000	        0.0000000000	        0.0000000000	
        0.0554413896	     -105.5925100494	      807.1442960777	      -12.5071470728	        0.2014214180	        0.0000000000	        0.0368717281	        1.5176681046	      113.2014212461	      -10.6729267478	       -0.2803852237	        0.0000000000	       -0.0165644527	        0.0000000000	        0.0000000000	        0.0000000000	        0.0000000000	        0.0000000000	        0.0000000000	
        0.0665296675	     -115.3032747499	      866.2263565569	      -13.8181782137	        0.2055765226	        0.0000000000	        0.0379590752	       -2.0659492562	       74.5184315450	       -9.8440712665	       -0.2798812970	        0.0000000000	       -0.0166212551	        0.0000000000	        0.0000000000	        0.0000000000	        0.0000000000	        0.0000000000	        0.0000000000	
        0.0776179455	     -112.2797773437	      866.6156161996	      -13.7885920553	        0.2087330535	        0.0000000000	        0.0385850454	       -7.8272249342	       31.0882872692	       -5.7058764396	       -0.2801153557	        0.0000000000	       -0.0165487859	        0.0000000000	        0.0000000000	        0.0000000000	        0.0000000000	        0.0000000000	        0.0000000000	
        0.0887062234	     -103.1207867653	      844.7116427354	      -14.0030992307	        0.2118409690	        0.0000000000	        0.0389007143	        0.0872152584	       -0.0870510962	        0.0018732286	        0.0000000000	        0.0000000000	        0.0000000000	        0.0000000000	        0.0000000000	        0.0000000000	        0.0000000000	        0.0000000000	        0.0000000000	
        0.0997945013	      -90.5649277814	      810.5020109053	      -14.7603128039	        0.2150913076	        0.0000000000	        0.0390232413	        0.0000660407	       -0.0000541733	       -0.0000039928	        0.0000000000	        0.0000000000	        0.0000000000	        0.0000000000	        0.0000000000	        0.0000000000	        0.0000000000	        0.0000000000	        0.0000000000	
        0.1108827792	      -78.3625877440	      771.3749925919	      -15.0422061934	        0.2187117834	        0.0000000000	        0.0390665022	        0.0000293755	       -0.0000210517	       -0.0000022870	        0.0000000000	        0.0000000000	        0.0000000000	        0.0000000000	        0.0000000000	        0.0000000000	        0.0000000000	        0.0000000000	        0.0000000000	
        0.1219710571	      -68.1361436700	      736.2532879336	      -15.1126837175	        0.2229398506	        0.0000000000	        0.0389968779	        0.0002870188	       -0.0001844296	       -0.0000248985	        0.0000000000	        0.0000000000	        0.0000000000	        0.0000000000	        0.0000000000	        0.0000000000	        0.0000000000	        0.0000000000	        0.0000000000	
        0.1330593351	      -58.2927156418	      703.3491581582	      -15.5472954095	        0.2272025882	        0.0000000000	        0.0389025638	        0.0048289055	       -0.0028451505	       -0.0004428415	        0.0000000000	        0.0000000000	        0.0000000000	        0.0000000000	        0.0000000000	        0.0000000000	        0.0000000000	        0.0000000000	        0.0000000000	
        0.1441476130	      -48.5507771789	      672.4739069637	      -15.9953185869	        0.2313256988	        0.0000000000	        0.0388629978	       -0.0214084357	        0.0117382932	        0.0020388029	        0.0000000000	        0.0000000000	        0.0000000000	        0.0000000000	        0.0000000000	        0.0000000000	        0.0000000000	        0.0000000000	        0.0000000000	
        0.1552358909	      -39.8850224505	      645.7339810665	      -16.5096361145	        0.2355087533	        0.0000000000	        0.0388764330	       -0.0151338241	        0.0078037538	        0.0014850492	        0.0000000000	        0.0000000000	        0.0000000000	        0.0000000000	        0.0000000000	        0.0000000000	        0.0000000000	        0.0000000000	        0.0000000000	
        0.1663241688	      -32.8496982622	      623.7122471651	      -17.2642749201	        0.2397959351	        0.0000000000	        0.0389162419	       -0.0102643331	        0.0050215832	        0.0010335734	        0.0000000000	        0.0000000000	        0.0000000000	        0.0000000000	        0.0000000000	        0.0000000000	        0.0000000000	        0.0000000000	        0.0000000000	
        0.1774124468	      -26.9621600284	      606.3460384401	      -17.9274705805	        0.2441822177	        0.0000000000	        0.0389713150	       -0.0089229902	        0.0041729035	        0.0009175627	        0.0000000000	        0.0000000000	        0.0000000000	        0.0000000000	        0.0000000000	        0.0000000000	        0.0000000000	        0.0000000000	        0.0000000000	
        0.1885007247	      -22.0844197166	      593.8061013110	      -18.4502649717	        0.2489207379	        0.0000000000	        0.0390175742	       -0.0104390790	        0.0046929817	        0.0010929413	        0.0000000000	        0.0000000000	        0.0000000000	        0.0000000000	        0.0000000000	        0.0000000000	        0.0000000000	        0.0000000000	        0.0000000000	
        0.1995890026	      -18.5988852703	      585.7449712469	      -18.5530902803	        0.2540381496	        0.0000000000	        0.0390346233	       -0.0159471546	        0.0069255822	        0.0016898259	        0.0000000000	        0.0000000000	        0.0000000000	        0.0000000000	        0.0000000000	        0.0000000000	        0.0000000000	        0.0000000000	        0.0000000000	
        0.2106772805	      -16.3154380453	      581.8044606058	      -18.4613168486	        0.2595563031	        0.0000000000	        0.0389990121	       -0.0297516676	        0.0125353700	        0.0031674134	        0.0000000000	        0.0000000000	        0.0000000000	        0.0000000000	        0.0000000000	        0.0000000000	        0.0000000000	        0.0000000000	        0.0000000000	
        0.2217655584	      -15.0589780613	      580.6884590758	      -18.2312315559	        0.2653199403	        0.0000000000	        0.0389076299	       -0.0623958128	        0.0256083029	        0.0066294527	        0.0000000000	        0.0000000000	        0.0000000000	        0.0000000000	        0.0000000000	        0.0000000000	        0.0000000000	        0.0000000000	        0.0000000000	
        0.2328538364	      -13.9122409858	      581.2702662467	      -18.0044789875	        0.2712556859	        0.0000000000	        0.0387643342	       -0.1354568165	        0.0543551036	        0.0142857704	        0.0000000000	        0.0000000000	        0.0000000000	        0.0000000000	        0.0000000000	        0.0000000000	        0.0000000000	        0.0000000000	        0.0000000000	
        0.2439421143	      -12.8198395813	      582.1477648445	      -17.7400567900	        0.2772320093	        0.0000000000	        0.0385846521	       -0.2825301514	        0.1112433893	        0.0294644092	        0.0000000000	        0.0000000000	        0.0000000000	        0.0000000000	        0.0000000000	        0.0000000000	        0.0000000000	        0.0000000000	        0.0000000000	
        0.2550303922	      -11.4924915367	      582.3244332756	      -17.2861040787	        0.2831355197	        0.0000000000	        0.0383886929	       -0.5329470134	        0.2066296196	        0.0547469709	        0.0000000000	        0.0000000000	        0.0000000000	        0.0000000000	        0.0000000000	        0.0000000000	        0.0000000000	        0.0000000000	        0.0000000000	
        0.2661186701	       -9.8474185070	      581.3429455109	      -16.7711527039	        0.2889649992	        0.0000000000	        0.0381819369	       -0.8769105395	        0.3358625926	        0.0883895365	        0.0000000000	        0.0000000000	        0.0000000000	        0.0000000000	        0.0000000000	        0.0000000000	        0.0000000000	        0.0000000000	        0.0000000000	
        0.2772069481	       -7.7562090512	      578.6217844957	      -16.3610952318	        0.2946954308	        0.0000000000	        0.0379707572	       -1.2423722243	        0.4714034893	        0.1221939862	        0.0000000000	        0.0000000000	        0.0000000000	        0.0000000000	        0.0000000000	        0.0000000000	        0.0000000000	        0.0000000000	        0.0000000000	
        0.2882952260	       -4.7696758435	      573.8139943785	      -15.5890343905	        0.3003561613	        0.0000000000	        0.0377582594	       -1.5298080642	        0.5763660636	        0.1453089421	        0.0000000000	        0.0000000000	        0.0000000000	        0.0000000000	        0.0000000000	        0.0000000000	        0.0000000000	        0.0000000000	        0.0000000000	
